# xmcd
#
# Track frame offsets:
#	150
#	14697
#	31002
#	50200
#	67370
#	83695
#	102690
#	120845
#	136590
#	160215
#	179447
#	196082
#	213690
#	233095
#	254185
#	271917
#
# Disc length: 3817 seconds
#
# Revision: 1
# Processed by: cddbd v1.5PL3 Copyright (c) Steve Scherf et al.
# Submitted via: CDex 1.50Beta5
#
DISCID=e90ee710
DTITLE=BoA - No.1
DYEAR=2002
DGENRE=Pop
TTITLE0=ナンバー・ワン
TTITLE1=マイ・スウィーティー
TTITLE2=ウェイティング
TTITLE3=トラジック
TTITLE4=シャイ・ラヴ
TTITLE5=デイ
TTITLE6=ディアー・マイ・ラヴ
TTITLE7=ビート・イット!
TTITLE8=ピーオーエル(パワー・オブ・ラヴ)
TTITLE9=マイ・ジェニー
TTITLE10=ペイン・ラヴ
TTITLE11=ハッピネス・ライズ
TTITLE12=リアライズ(ステイ・ウィズ・ミー)
TTITLE13=アザレア
TTITLE14=リッスン・トゥ・マイ・ハート
TTITLE15=ナンバー・ワン・イングリッシュ・バージョン
EXTD=
EXTT0=
EXTT1=
EXTT2=
EXTT3=
EXTT4=
EXTT5=
EXTT6=
EXTT7=
EXTT8=
EXTT9=
EXTT10=
EXTT11=
EXTT12=
EXTT13=
EXTT14=
EXTT15=
PLAYORDER=
